<?xml version="1.0" encoding="utf-8"?>
<!-- Svg Vector Icons : http://www.onlinewebfonts.com/icon -->
<!DOCTYPE svg PUBLIC "-//W3C//DTD SVG 1.1//EN" "http://www.w3.org/Graphics/SVG/1.1/DTD/svg11.dtd">
<svg version="1.1" xmlns="http://www.w3.org/2000/svg" xmlns:xlink="http://www.w3.org/1999/xlink" x="0px" y="0px" viewBox="0 0 1000 1000" enable-background="new 0 0 1000 1000" xml:space="preserve">
<metadata> Svg Vector Icons : http://www.onlinewebfonts.com/icon </metadata>
<g><g><g><path d="M500.1,990c-72.4,0-130.2-52.3-144.6-120.4l289.2-0.4C630.4,937.6,572.7,990,500.1,990z" fill="#c0e1cf"/><path d="M650.8,839.1c0,0-0.2,0.2-0.2,0.4l-301.1,0.6c0-0.4-0.2-0.6-0.2-0.9v-18.7l301.4-0.6V839.1z" fill="#c0e1cf"/><path d="M500.1,10c-192.7,0-349,156.1-349,348.8c0,260.3,183.4,292,195.5,431.9l306.7-0.6c13-139.4,195.6-171.6,195.6-431.3C848.9,166.1,692.9,10,500.1,10z M689.5,439.4c-45.2,26.5-21.3-79.7-70.7-164.8C569.6,189.4,466,157.3,511.4,130.8c45.7-26.2,141.9,10.2,191.1,95.4C751.5,311.7,735.2,413.3,689.5,439.4z" fill="#c0e1cf"/></g></g><g></g><g></g><g></g><g></g><g></g><g></g><g></g><g></g><g></g><g></g><g></g><g></g><g></g><g></g><g></g></g>
</svg>