<?xml version="1.0" encoding="utf-8"?>
<!-- Svg Vector Icons : http://www.onlinewebfonts.com/icon -->
<!DOCTYPE svg PUBLIC "-//W3C//DTD SVG 1.1//EN" "http://www.w3.org/Graphics/SVG/1.1/DTD/svg11.dtd">
<svg version="1.1" xmlns="http://www.w3.org/2000/svg" xmlns:xlink="http://www.w3.org/1999/xlink" x="0px" y="0px" viewBox="0 0 1000 1000" enable-background="new 0 0 1000 1000" xml:space="preserve">
<metadata> Svg Vector Icons : http://www.onlinewebfonts.com/icon </metadata>
<g><path d="M51,988.9c-12.2,0-20.4-4.1-28.6-12.2c-12.2-12.2-16.3-28.6-8.2-44.9L136.7,646c0-4.1,4.1-8.2,8.2-12.2L724.6,54c57.2-57.2,159.2-57.2,220.5,0c28.6,32.7,44.9,69.4,44.9,110.2c0,40.8-16.3,81.7-44.9,110.2L365.4,854.2c-4.1,4.1-8.2,8.2-12.2,8.2L67.3,984.8C63.2,988.9,55.1,988.9,51,988.9z M206.1,686.8l-77.6,183.7l183.7-77.6l571.6-571.6c16.3-16.3,24.5-36.7,24.5-57.2c0-20.4-8.2-36.7-20.4-53.1c-32.7-32.7-77.6-28.6-106.1,0L206.1,686.8z" fill="#EB6950"/><path d="M336.8,866.4c-12.2,0-20.4-4.1-28.6-12.2L144.9,690.9c-16.3-16.3-16.3-40.8,0-57.2c16.3-16.3,40.8-16.3,57.2,0L365.4,797c16.3,16.3,16.3,40.8,0,57.2C357.2,862.3,349,866.4,336.8,866.4z" fill="#EB6950"/><path d="M336.8,417.3c-4.1,0-12.2,0-16.3-4.1C300,401,291.9,380.6,300,360.2C328.6,303,365.4,249.9,414.3,205L516.4,103c61.2-61.2,159.2-61.2,220.5,0c16.3,16.3,16.3,40.8,0,57.2c-16.3,16.3-40.8,16.3-57.2,0l0,0c-28.6-28.6-73.5-28.6-102.1,0L475.6,262.2c-40.8,40.8-73.5,85.7-98,134.7C365.4,409.2,353.1,417.3,336.8,417.3z" fill="#EB6950"/></g>
</svg>